<?xml version="1.0" encoding="UTF-8" standalone="no"?>
<svg
   xmlns:ns1="http://www.iki.fi/pav/software/textext/"
   xmlns:dc="http://purl.org/dc/elements/1.1/"
   xmlns:cc="http://creativecommons.org/ns#"
   xmlns:rdf="http://www.w3.org/1999/02/22-rdf-syntax-ns#"
   xmlns:svg="http://www.w3.org/2000/svg"
   xmlns="http://www.w3.org/2000/svg"
   xmlns:sodipodi="http://sodipodi.sourceforge.net/DTD/sodipodi-0.dtd"
   xmlns:inkscape="http://www.inkscape.org/namespaces/inkscape"
   sodipodi:docname="drawing_two.svg"
   inkscape:version="0.92.4 (unknown)"
   id="svg8"
   version="1.1"
   viewBox="0 0 210 297"
   height="297mm"
   width="210mm">
  <defs
     id="defs2">
    <inkscape:perspective
       sodipodi:type="inkscape:persp3d"
       inkscape:vp_x="108.18836 : 157.56243 : 1"
       inkscape:vp_y="0 : 973.02052 : 0"
       inkscape:vp_z="234.18836 : 157.56243 : 1"
       inkscape:persp3d-origin="171.18836 : 109.39792 : 1"
       id="perspective29459" />
    <marker
       inkscape:stockid="Arrow1Lend"
       orient="auto"
       refY="0.0"
       refX="0.0"
       id="marker1320"
       style="overflow:visible;"
       inkscape:isstock="true">
      <path
         id="path891"
         d="M 0.0,0.0 L 5.0,-5.0 L -12.5,0.0 L 5.0,5.0 L 0.0,0.0 z "
         style="fill-rule:evenodd;stroke:#000000;stroke-width:1pt;stroke-opacity:1;fill:#000000;fill-opacity:1"
         transform="scale(0.8) rotate(180) translate(12.5,0)" />
    </marker>
    <marker
       inkscape:isstock="true"
       style="overflow:visible;"
       id="Arrow1Lend"
       refX="0.0"
       refY="0.0"
       orient="auto"
       inkscape:stockid="Arrow1Lend">
      <path
         transform="scale(0.8) rotate(180) translate(12.5,0)"
         style="fill-rule:evenodd;stroke:#000000;stroke-width:1pt;stroke-opacity:1;fill:#000000;fill-opacity:1"
         d="M 0.0,0.0 L 5.0,-5.0 L -12.5,0.0 L 5.0,5.0 L 0.0,0.0 z "
         id="path1453" />
    </marker>
    <marker
       inkscape:stockid="Arrow1Lend"
       orient="auto"
       refY="0.0"
       refX="0.0"
       id="marker1349"
       style="overflow:visible;"
       inkscape:isstock="true">
      <path
         id="path1347"
         d="M 0.0,0.0 L 5.0,-5.0 L -12.5,0.0 L 5.0,5.0 L 0.0,0.0 z "
         style="fill-rule:evenodd;stroke:#000000;stroke-width:1pt;stroke-opacity:1;fill:#000000;fill-opacity:1"
         transform="scale(0.8) rotate(180) translate(12.5,0)" />
    </marker>
    <marker
       inkscape:stockid="Arrow1Lend"
       orient="auto"
       refY="0.0"
       refX="0.0"
       id="marker1339"
       style="overflow:visible;"
       inkscape:isstock="true">
      <path
         id="path1337"
         d="M 0.0,0.0 L 5.0,-5.0 L -12.5,0.0 L 5.0,5.0 L 0.0,0.0 z "
         style="fill-rule:evenodd;stroke:#000000;stroke-width:1pt;stroke-opacity:1;fill:#000000;fill-opacity:1"
         transform="scale(0.8) rotate(180) translate(12.5,0)" />
    </marker>
    <marker
       inkscape:stockid="Arrow1Lend"
       orient="auto"
       refY="0.0"
       refX="0.0"
       id="marker1329"
       style="overflow:visible;"
       inkscape:isstock="true">
      <path
         id="path1327"
         d="M 0.0,0.0 L 5.0,-5.0 L -12.5,0.0 L 5.0,5.0 L 0.0,0.0 z "
         style="fill-rule:evenodd;stroke:#000000;stroke-width:1pt;stroke-opacity:1;fill:#ffeeaa;fill-opacity:1"
         transform="scale(0.8) rotate(180) translate(12.5,0)" />
    </marker>
    <marker
       inkscape:isstock="true"
       style="overflow:visible;"
       id="marker1249"
       refX="0.0"
       refY="0.0"
       orient="auto"
       inkscape:stockid="Arrow1Lend">
      <path
         transform="scale(0.8) rotate(180) translate(12.5,0)"
         style="fill-rule:evenodd;stroke:#000000;stroke-width:1pt;stroke-opacity:1;fill:#000000;fill-opacity:1"
         d="M 0.0,0.0 L 5.0,-5.0 L -12.5,0.0 L 5.0,5.0 L 0.0,0.0 z "
         id="path1247" />
    </marker>
    <marker
       inkscape:isstock="true"
       style="overflow:visible;"
       id="marker1239"
       refX="0.0"
       refY="0.0"
       orient="auto"
       inkscape:stockid="Arrow1Lend">
      <path
         transform="scale(0.8) rotate(180) translate(12.5,0)"
         style="fill-rule:evenodd;stroke:#000000;stroke-width:1pt;stroke-opacity:1;fill:#000000;fill-opacity:1"
         d="M 0.0,0.0 L 5.0,-5.0 L -12.5,0.0 L 5.0,5.0 L 0.0,0.0 z "
         id="path1237" />
    </marker>
    <marker
       inkscape:stockid="Arrow1Lend"
       orient="auto"
       refY="0"
       refX="0"
       id="marker1320-5"
       style="overflow:visible"
       inkscape:isstock="true">
      <path
         inkscape:connector-curvature="0"
         id="path891-3"
         d="M 0,0 5,-5 -12.5,0 5,5 Z"
         style="fill:#000000;fill-opacity:1;fill-rule:evenodd;stroke:#000000;stroke-width:1.00000003pt;stroke-opacity:1"
         transform="matrix(-0.8,0,0,-0.8,-10,0)" />
    </marker>
    <marker
       inkscape:stockid="Arrow1Lend"
       orient="auto"
       refY="0"
       refX="0"
       id="marker1320-5-6"
       style="overflow:visible"
       inkscape:isstock="true">
      <path
         inkscape:connector-curvature="0"
         id="path891-3-2"
         d="M 0,0 5,-5 -12.5,0 5,5 Z"
         style="fill:#000000;fill-opacity:1;fill-rule:evenodd;stroke:#000000;stroke-width:1.00000003pt;stroke-opacity:1"
         transform="matrix(-0.8,0,0,-0.8,-10,0)" />
    </marker>
    <marker
       inkscape:stockid="Arrow1Lend"
       orient="auto"
       refY="0"
       refX="0"
       id="marker1320-5-6-1"
       style="overflow:visible"
       inkscape:isstock="true">
      <path
         inkscape:connector-curvature="0"
         id="path891-3-2-8"
         d="M 0,0 5,-5 -12.5,0 5,5 Z"
         style="fill:#000000;fill-opacity:1;fill-rule:evenodd;stroke:#000000;stroke-width:1.00000003pt;stroke-opacity:1"
         transform="matrix(-0.8,0,0,-0.8,-10,0)" />
    </marker>
  </defs>
  <sodipodi:namedview
     id="base"
     pagecolor="#ffffff"
     bordercolor="#666666"
     borderopacity="1.0"
     inkscape:pageopacity="0.0"
     inkscape:pageshadow="2"
     inkscape:zoom="1.4142135"
     inkscape:cx="455.70431"
     inkscape:cy="629.04253"
     inkscape:document-units="mm"
     inkscape:current-layer="layer1"
     inkscape:document-rotation="0"
     showgrid="true"
     inkscape:window-width="2560"
     inkscape:window-height="1403"
     inkscape:window-x="0"
     inkscape:window-y="0"
     inkscape:window-maximized="1">
    <inkscape:grid
       type="xygrid"
       id="grid10"
       spacingx="1.3229167"
       spacingy="1.3229167"
       dotted="true"
       empspacing="1"
       enabled="false" />
    <inkscape:grid
       type="axonomgrid"
       id="grid112" />
  </sodipodi:namedview>
  <metadata
     id="metadata5">
    <rdf:RDF>
      <cc:Work
         rdf:about="">
        <dc:format>image/svg+xml</dc:format>
        <dc:type
           rdf:resource="http://purl.org/dc/dcmitype/StillImage" />
        <dc:title></dc:title>
      </cc:Work>
    </rdf:RDF>
  </metadata>
  <g
     inkscape:label="Layer 1"
     inkscape:groupmode="layer"
     id="layer1">
    <path
       id="path8497"
       style="fill:#ffeeaa;stroke:none;stroke-width:0.26499999;stroke-linecap:butt;stroke-linejoin:miter;stroke-miterlimit:4;stroke-dasharray:none;stroke-opacity:1;fill-opacity:1"
       d="m 25.980764,172 77.942286,-45 77.94228,45" />
    <path
       style="fill:#ffeeaa;stroke:none;stroke-width:0.26499999;stroke-linecap:butt;stroke-linejoin:miter;stroke-miterlimit:4;stroke-dasharray:none;stroke-opacity:1"
       d="M 181.86533,172 103.92305,217 25.980764,172"
       id="path140" />
    <path
       style="fill:none;stroke:#000000;stroke-width:0.26499999;stroke-linecap:butt;stroke-linejoin:miter;stroke-miterlimit:4;stroke-dasharray:none;stroke-opacity:1;marker-end:url(#marker1349)"
       d="M 103.92305,127 V 37"
       id="path142"
       inkscape:connector-curvature="0" />
    <a
       transform="translate(34.641022,-3.51446)"
       id="a1405" />
    <path
       inkscape:connector-curvature="0"
       id="path1774"
       d="m 173.20508,167 v 25"
       style="fill:none;stroke:#000000;stroke-width:0.26499999;stroke-linecap:butt;stroke-linejoin:miter;stroke-miterlimit:4;stroke-dasharray:2.1199999, 2.1199999;stroke-dashoffset:0;stroke-opacity:1"
       sodipodi:nodetypes="cc" />
    <path
       inkscape:connector-curvature="0"
       id="path1776"
       d="m 34.641016,117 v 50"
       style="fill:none;stroke:#000000;stroke-width:0.26458299;stroke-linecap:butt;stroke-linejoin:miter;stroke-miterlimit:4;stroke-dasharray:2.11666389, 2.11666389;stroke-dashoffset:0;stroke-opacity:1" />
    <path
       style="fill:#ff2626;fill-opacity:0.43307088;stroke:#000000;stroke-width:0.26499999;stroke-linecap:butt;stroke-linejoin:miter;stroke-miterlimit:4;stroke-dasharray:none;stroke-dashoffset:0;stroke-opacity:1"
       d="m 103.92305,127 69.28203,65 -69.28203,-10 -69.282031,-65 69.282031,10"
       id="path1772-5"
       inkscape:connector-curvature="0"
       sodipodi:nodetypes="ccccc" />
    <path
       style="fill:none;stroke:#000000;stroke-width:0.26499999;stroke-linecap:butt;stroke-linejoin:miter;stroke-opacity:1;stroke-miterlimit:4;stroke-dasharray:2.1199999,2.1199999;stroke-dashoffset:0"
       d="M 152.42047,189 103.92305,127"
       id="path1197"
       inkscape:connector-curvature="0" />
    <path
       style="fill:none;stroke:#000000;stroke-width:0.26458332px;stroke-linecap:butt;stroke-linejoin:miter;stroke-opacity:1;marker-end:url(#marker1320)"
       d="M 103.92305,127 17.320508,177"
       id="path886"
       inkscape:connector-curvature="0"
       sodipodi:nodetypes="cc" />
    <path
       style="fill:none;stroke:#000000;stroke-width:0.26458332px;stroke-linecap:butt;stroke-linejoin:miter;stroke-opacity:1;marker-end:url(#marker1320-5)"
       d="m 103.92305,127 86.60254,50"
       id="path886-5"
       inkscape:connector-curvature="0"
       sodipodi:nodetypes="cc" />
    <path
       style="fill:#ffeeaa;fill-opacity:1;stroke:none;stroke-width:0.17705508;stroke-miterlimit:4;stroke-dasharray:none;stroke-dashoffset:0;stroke-opacity:1"
       d="m 576.45551,713.76817 c -0.30553,-0.2095 -179.89715,-229.87065 -179.81763,-229.95016 0.10954,-0.10955 220.31211,206.52748 220.31211,206.73982 0,0.15816 -39.95157,23.3504 -40.21113,23.34292 -0.0517,-0.002 -0.17918,-0.0611 -0.28335,-0.13258 z"
       id="path29117"
       inkscape:connector-curvature="0"
       transform="scale(0.26458333)" />
    <path
       style="fill:none;stroke:#000000;stroke-width:0.26458332px;stroke-linecap:butt;stroke-linejoin:miter;stroke-opacity:1;marker-end:url(#Arrow1Lend)"
       d="M 103.92305,127 138.56406,67"
       id="path29119"
       inkscape:connector-curvature="0" />
    <g
       id="g29175"
       ns1:jacobian_sqrt="0.705556"
       inkscapeversion="0.92.4"
       ns1:alignment="middle center"
       ns1:scale="2.0"
       ns1:preamble="/home/joe/.config/inkscape/extensions/textext/default_packages.tex"
       ns1:text="$\\vec{n}$"
       ns1:pdfconverter="pdf2svg"
       ns1:texconverter="pdflatex"
       ns1:version="0.11.0"
       transform="matrix(0.705556,0,0,0.705556,34.648592,-30.092768)">
      <g
         id="surface1">
        <g
           id="g29168"
           style="fill:#000000;fill-opacity:1">
          <path
             id="path29166"
             transform="translate(148.445,134.765)"
             d="m 5.359375,-5.9375 c -0.140625,0.140625 -0.46875,0.421875 -0.46875,0.59375 0,0.09375 0.09375,0.203125 0.1875,0.203125 0.09375,0 0.140625,-0.078125 0.203125,-0.140625 C 5.390625,-5.421875 5.625,-5.703125 6.0625,-5.921875 6.125,-5.96875 6.234375,-6.015625 6.234375,-6.125 6.234375,-6.234375 6.15625,-6.28125 6.09375,-6.328125 5.875,-6.484375 5.765625,-6.65625 5.6875,-6.890625 5.65625,-6.984375 5.625,-7.125 5.484375,-7.125 c -0.140625,0 -0.203125,0.140625 -0.203125,0.21875 0,0.046875 0.078125,0.359375 0.234375,0.578125 H 2.15625 c -0.15625,0 -0.34375,0 -0.34375,0.203125 0,0.1875 0.1875,0.1875 0.34375,0.1875 z m 0,0"
             style="stroke:none;stroke-width:0"
             inkscape:connector-curvature="0" />
        </g>
        <g
           id="g29172"
           style="fill:#000000;fill-opacity:1">
          <path
             id="path29170"
             transform="translate(148.71399,134.765)"
             d="m 0.875,-0.59375 c -0.03125,0.15625 -0.09375,0.390625 -0.09375,0.4375 0,0.171875 0.140625,0.265625 0.296875,0.265625 0.125,0 0.296875,-0.078125 0.375,-0.28125 0,-0.015625 0.125,-0.484375 0.1875,-0.734375 l 0.21875,-0.890625 C 1.90625,-2.03125 1.96875,-2.25 2.03125,-2.46875 c 0.03125,-0.171875 0.109375,-0.46875 0.125,-0.5 0.140625,-0.3125 0.671875,-1.21875 1.625,-1.21875 0.453125,0 0.53125,0.375 0.53125,0.703125 0,0.609375 -0.484375,1.890625 -0.640625,2.3125 C 3.578125,-0.9375 3.5625,-0.8125 3.5625,-0.703125 c 0,0.46875 0.359375,0.8125 0.828125,0.8125 0.9375,0 1.296875,-1.453125 1.296875,-1.53125 0,-0.109375 -0.078125,-0.109375 -0.109375,-0.109375 -0.109375,0 -0.109375,0.03125 -0.15625,0.1875 -0.203125,0.671875 -0.53125,1.234375 -1.015625,1.234375 -0.171875,0 -0.234375,-0.09375 -0.234375,-0.328125 0,-0.25 0.078125,-0.484375 0.171875,-0.703125 0.1875,-0.53125 0.609375,-1.625 0.609375,-2.203125 0,-0.65625 -0.421875,-1.0625 -1.140625,-1.0625 -0.90625,0 -1.390625,0.640625 -1.5625,0.875 -0.046875,-0.5625 -0.453125,-0.875 -0.921875,-0.875 -0.453125,0 -0.640625,0.390625 -0.734375,0.5625 C 0.421875,-3.5 0.296875,-2.90625 0.296875,-2.875 c 0,0.109375 0.09375,0.109375 0.109375,0.109375 0.109375,0 0.109375,-0.015625 0.171875,-0.234375 0.171875,-0.703125 0.375,-1.1875 0.734375,-1.1875 0.1875,0 0.296875,0.125 0.296875,0.453125 0,0.21875 -0.03125,0.328125 -0.15625,0.84375 z m 0,0"
             style="stroke:none;stroke-width:0"
             inkscape:connector-curvature="0" />
        </g>
      </g>
    </g>
    <g
       id="g29323"
       ns1:jacobian_sqrt="0.705556"
       inkscapeversion="0.92.4"
       ns1:alignment="middle center"
       ns1:scale="2.0"
       ns1:preamble="/home/joe/.config/inkscape/extensions/textext/default_packages.tex"
       ns1:text="$x$"
       ns1:pdfconverter="pdf2svg"
       ns1:texconverter="pdflatex"
       ns1:version="0.11.0"
       transform="matrix(0.705556,0,0,0.705556,87.489804,85.91895)">
      <g
         id="g29321">
        <g
           id="g29319"
           style="fill:#000000;fill-opacity:1">
          <path
             id="path29317"
             transform="translate(148.712,134.765)"
             d="M 3.328125,-3.015625 C 3.390625,-3.265625 3.625,-4.1875 4.3125,-4.1875 c 0.046875,0 0.296875,0 0.5,0.125 C 4.53125,-4 4.34375,-3.765625 4.34375,-3.515625 c 0,0.15625 0.109375,0.34375 0.375,0.34375 0.21875,0 0.53125,-0.171875 0.53125,-0.578125 0,-0.515625 -0.578125,-0.65625 -0.921875,-0.65625 -0.578125,0 -0.921875,0.53125 -1.046875,0.75 -0.25,-0.65625 -0.78125,-0.75 -1.078125,-0.75 -1.03125,0 -1.609375,1.28125 -1.609375,1.53125 0,0.109375 0.109375,0.109375 0.125,0.109375 0.078125,0 0.109375,-0.03125 0.125,-0.109375 0.34375,-1.0625 1,-1.3125 1.34375,-1.3125 0.1875,0 0.53125,0.09375 0.53125,0.671875 0,0.3125 -0.171875,0.96875 -0.53125,2.375 -0.15625,0.609375 -0.515625,1.03125 -0.953125,1.03125 -0.0625,0 -0.28125,0 -0.5,-0.125 0.25,-0.0625 0.46875,-0.265625 0.46875,-0.546875 0,-0.265625 -0.21875,-0.34375 -0.359375,-0.34375 -0.3125,0 -0.546875,0.25 -0.546875,0.578125 0,0.453125 0.484375,0.65625 0.921875,0.65625 0.671875,0 1.03125,-0.703125 1.046875,-0.75 0.125,0.359375 0.484375,0.75 1.078125,0.75 1.03125,0 1.59375,-1.28125 1.59375,-1.53125 0,-0.109375 -0.078125,-0.109375 -0.109375,-0.109375 -0.09375,0 -0.109375,0.046875 -0.140625,0.109375 -0.328125,1.078125 -1,1.3125 -1.3125,1.3125 -0.390625,0 -0.546875,-0.3125 -0.546875,-0.65625 0,-0.21875 0.046875,-0.4375 0.15625,-0.875 z m 0,0"
             style="stroke:none;stroke-width:0"
             inkscape:connector-curvature="0" />
        </g>
      </g>
    </g>
    <g
       id="g29382"
       ns1:jacobian_sqrt="0.705556"
       inkscapeversion="0.92.4"
       ns1:alignment="middle center"
       ns1:scale="2.0"
       ns1:preamble="/home/joe/.config/inkscape/extensions/textext/default_packages.tex"
       ns1:text="$y$"
       ns1:pdfconverter="pdf2svg"
       ns1:texconverter="pdflatex"
       ns1:version="0.11.0"
       transform="matrix(0.705556,0,0,0.705556,-94.833657,83.918256)">
      <g
         id="g29380">
        <g
           id="g29378"
           style="fill:#000000;fill-opacity:1">
          <path
             id="path29376"
             transform="translate(148.712,134.765)"
             d="m 4.84375,-3.796875 c 0.046875,-0.140625 0.046875,-0.15625 0.046875,-0.234375 0,-0.171875 -0.140625,-0.265625 -0.296875,-0.265625 -0.09375,0 -0.25,0.0625 -0.34375,0.203125 -0.015625,0.0625 -0.109375,0.359375 -0.140625,0.546875 -0.078125,0.25 -0.140625,0.53125 -0.203125,0.796875 l -0.453125,1.796875 c -0.03125,0.140625 -0.46875,0.84375 -1.125,0.84375 -0.5,0 -0.609375,-0.4375 -0.609375,-0.8125 C 1.71875,-1.375 1.890625,-2 2.21875,-2.875 2.375,-3.28125 2.421875,-3.390625 2.421875,-3.59375 c 0,-0.4375 -0.3125,-0.8125 -0.8125,-0.8125 -0.953125,0 -1.3125,1.453125 -1.3125,1.53125 0,0.109375 0.09375,0.109375 0.109375,0.109375 0.109375,0 0.109375,-0.03125 0.15625,-0.1875 0.28125,-0.9375 0.671875,-1.234375 1.015625,-1.234375 0.078125,0 0.25,0 0.25,0.3125 0,0.25 -0.109375,0.515625 -0.171875,0.703125 -0.40625,1.0625 -0.578125,1.625 -0.578125,2.09375 0,0.890625 0.625,1.1875 1.21875,1.1875 0.390625,0 0.71875,-0.171875 1,-0.453125 -0.125,0.515625 -0.25,1.015625 -0.640625,1.546875 -0.265625,0.328125 -0.640625,0.625 -1.09375,0.625 -0.140625,0 -0.59375,-0.03125 -0.765625,-0.421875 0.15625,0 0.296875,0 0.421875,-0.125 C 1.328125,1.203125 1.421875,1.0625 1.421875,0.875 1.421875,0.5625 1.15625,0.53125 1.0625,0.53125 0.828125,0.53125 0.5,0.6875 0.5,1.171875 c 0,0.5 0.4375,0.875 1.0625,0.875 1.015625,0 2.046875,-0.90625 2.328125,-2.03125 z m 0,0"
             style="stroke:none;stroke-width:0"
             inkscape:connector-curvature="0" />
        </g>
      </g>
    </g>
    <g
       id="g29445"
       ns1:jacobian_sqrt="0.705556"
       inkscapeversion="0.92.4"
       ns1:alignment="middle center"
       ns1:scale="2.0"
       ns1:preamble="/home/joe/.config/inkscape/extensions/textext/default_packages.tex"
       ns1:text="$z$"
       ns1:pdfconverter="pdf2svg"
       ns1:texconverter="pdflatex"
       ns1:version="0.11.0"
       transform="matrix(0.705556,0,0,0.705556,-2.7703807,-60.158914)">
      <g
         id="g29443">
        <g
           id="g29441"
           style="fill:#000000;fill-opacity:1">
          <path
             id="path29439"
             transform="translate(148.712,134.765)"
             d="m 1.328125,-0.828125 c 0.53125,-0.578125 0.828125,-0.828125 1.1875,-1.140625 0,0 0.609375,-0.53125 0.96875,-0.890625 C 4.4375,-3.78125 4.65625,-4.265625 4.65625,-4.3125 c 0,-0.09375 -0.09375,-0.09375 -0.109375,-0.09375 -0.078125,0 -0.09375,0.015625 -0.15625,0.109375 -0.296875,0.484375 -0.5,0.640625 -0.734375,0.640625 -0.25,0 -0.359375,-0.15625 -0.515625,-0.328125 -0.1875,-0.21875 -0.359375,-0.421875 -0.6875,-0.421875 -0.75,0 -1.203125,0.921875 -1.203125,1.140625 0,0.046875 0.03125,0.109375 0.109375,0.109375 0.09375,0 0.109375,-0.046875 0.140625,-0.109375 0.1875,-0.46875 0.765625,-0.46875 0.84375,-0.46875 0.203125,0 0.390625,0.0625 0.625,0.140625 0.40625,0.15625 0.515625,0.15625 0.765625,0.15625 -0.359375,0.421875 -1.1875,1.140625 -1.375,1.296875 l -0.90625,0.84375 C 0.78125,-0.625 0.421875,-0.0625 0.421875,0.015625 c 0,0.09375 0.109375,0.09375 0.125,0.09375 0.078125,0 0.09375,-0.015625 0.15625,-0.125 0.234375,-0.359375 0.53125,-0.625 0.859375,-0.625 0.21875,0 0.328125,0.09375 0.578125,0.375 0.15625,0.21875 0.34375,0.375 0.625,0.375 1,0 1.578125,-1.265625 1.578125,-1.53125 0,-0.046875 -0.046875,-0.109375 -0.125,-0.109375 -0.09375,0 -0.109375,0.0625 -0.140625,0.140625 C 3.84375,-0.75 3.203125,-0.5625 2.875,-0.5625 c -0.1875,0 -0.375,-0.0625 -0.578125,-0.125 -0.34375,-0.125 -0.5,-0.171875 -0.703125,-0.171875 -0.015625,0 -0.171875,0 -0.265625,0.03125 z m 0,0"
             style="stroke:none;stroke-width:0"
             inkscape:connector-curvature="0" />
        </g>
      </g>
    </g>
    <path
       style="fill:none;stroke:#000000;stroke-width:0.26458332px;stroke-linecap:butt;stroke-linejoin:miter;stroke-opacity:1"
       d="m 96.994847,125.99999 3.464103,-6"
       id="path29455"
       inkscape:connector-curvature="0" />
    <path
       style="fill:none;stroke:#000000;stroke-width:0.26458332px;stroke-linecap:butt;stroke-linejoin:miter;stroke-opacity:1"
       d="m 100.45894,119.99999 6.92821,1"
       id="path29457"
       inkscape:connector-curvature="0" />
    <path
       style="fill:none;stroke:#000000;stroke-width:0.26458332px;stroke-linecap:butt;stroke-linejoin:miter;stroke-opacity:1"
       d="m 103.92305,126.99999 5.19615,5"
       id="path29455-0"
       inkscape:connector-curvature="0"
       sodipodi:nodetypes="cc" />
    <path
       style="fill:none;stroke:#000000;stroke-width:0.26458332px;stroke-linecap:butt;stroke-linejoin:miter;stroke-opacity:1"
       d="m 107.38715,120.99999 -3.46407,5.99998"
       id="path29457-9"
       inkscape:connector-curvature="0"
       sodipodi:nodetypes="cc" />
    <path
       style="fill:none;stroke:#000000;stroke-width:0.26458332px;stroke-linecap:butt;stroke-linejoin:miter;stroke-opacity:1;marker-end:url(#marker1320-5-6)"
       d="m 173.20508,191.99999 6.06218,5.5"
       id="path886-5-6"
       inkscape:connector-curvature="0"
       sodipodi:nodetypes="cc" />
    <path
       style="fill:none;stroke:#000000;stroke-width:0.26458332px;stroke-linecap:butt;stroke-linejoin:miter;stroke-opacity:1;marker-end:url(#marker1320-5-6-1)"
       d="m 34.641016,116.99999 -8.660254,-1"
       id="path886-5-6-7"
       inkscape:connector-curvature="0"
       sodipodi:nodetypes="cc" />
    <g
       id="g2745"
       ns1:jacobian_sqrt="0.705556"
       inkscapeversion="0.92.4"
       ns1:alignment="middle center"
       ns1:scale="2.0"
       ns1:preamble="/home/joe/.config/inkscape/extensions/textext/default_packages.tex"
       ns1:text="$S_x = \n\\begin{pmatrix}\n1 \\\\\n0 \\\\\n\\frac{\\partial f}{\\partial x}\n\\end{pmatrix}\n$"
       ns1:pdfconverter="pdf2svg"
       ns1:texconverter="pdflatex"
       ns1:version="0.11.0"
       transform="matrix(0.705556,0.000000,0.000000,0.705556,59.562184,103.947795)">
      <g
         id="g2743">
        <g
           id="g2691"
           style="fill:rgb(0%,0%,0%);fill-opacity:1;">
          <path
             id="path2689"
             transform="translate(148.712,145.685)"
             d="M 6.4375 -6.921875 C 6.4375 -6.953125 6.40625 -7.03125 6.3125 -7.03125 C 6.265625 -7.03125 6.265625 -7.015625 6.140625 -6.875 L 5.65625 -6.3125 C 5.40625 -6.78125 4.890625 -7.03125 4.234375 -7.03125 C 2.96875 -7.03125 1.78125 -5.875 1.78125 -4.671875 C 1.78125 -3.875 2.296875 -3.40625 2.8125 -3.265625 L 3.875 -2.984375 C 4.25 -2.890625 4.796875 -2.734375 4.796875 -1.921875 C 4.796875 -1.03125 3.984375 -0.09375 3 -0.09375 C 2.359375 -0.09375 1.25 -0.3125 1.25 -1.546875 C 1.25 -1.78125 1.3125 -2.03125 1.3125 -2.078125 C 1.328125 -2.125 1.328125 -2.140625 1.328125 -2.15625 C 1.328125 -2.25 1.265625 -2.265625 1.21875 -2.265625 C 1.171875 -2.265625 1.140625 -2.25 1.109375 -2.21875 C 1.078125 -2.1875 0.515625 0.09375 0.515625 0.125 C 0.515625 0.171875 0.5625 0.21875 0.625 0.21875 C 0.671875 0.21875 0.6875 0.203125 0.8125 0.0625 L 1.296875 -0.5 C 1.71875 0.078125 2.40625 0.21875 2.984375 0.21875 C 4.34375 0.21875 5.515625 -1.109375 5.515625 -2.34375 C 5.515625 -3.03125 5.171875 -3.375 5.03125 -3.515625 C 4.796875 -3.734375 4.640625 -3.78125 3.765625 -4 C 3.53125 -4.0625 3.1875 -4.171875 3.09375 -4.1875 C 2.828125 -4.28125 2.484375 -4.5625 2.484375 -5.09375 C 2.484375 -5.90625 3.28125 -6.75 4.234375 -6.75 C 5.046875 -6.75 5.65625 -6.3125 5.65625 -5.203125 C 5.65625 -4.890625 5.625 -4.703125 5.625 -4.640625 C 5.625 -4.640625 5.625 -4.546875 5.734375 -4.546875 C 5.84375 -4.546875 5.859375 -4.578125 5.890625 -4.75 Z M 6.4375 -6.921875 "
             style="stroke:none;stroke-width:0" />
        </g>
        <g
           id="g2695"
           style="fill:rgb(0%,0%,0%);fill-opacity:1;">
          <path
             id="path2693"
             transform="translate(154.821,147.179)"
             d="M 1.734375 -0.734375 C 1.671875 -0.5 1.4375 -0.125 1.078125 -0.125 C 1.0625 -0.125 0.84375 -0.125 0.703125 -0.21875 C 0.984375 -0.3125 1.015625 -0.5625 1.015625 -0.609375 C 1.015625 -0.765625 0.890625 -0.859375 0.734375 -0.859375 C 0.53125 -0.859375 0.328125 -0.703125 0.328125 -0.4375 C 0.328125 -0.09375 0.71875 0.0625 1.0625 0.0625 C 1.390625 0.0625 1.671875 -0.125 1.84375 -0.421875 C 2.015625 -0.0625 2.390625 0.0625 2.671875 0.0625 C 3.484375 0.0625 3.90625 -0.796875 3.90625 -1 C 3.90625 -1.09375 3.8125 -1.09375 3.796875 -1.09375 C 3.6875 -1.09375 3.6875 -1.046875 3.65625 -0.96875 C 3.515625 -0.484375 3.09375 -0.125 2.703125 -0.125 C 2.421875 -0.125 2.28125 -0.3125 2.28125 -0.578125 C 2.28125 -0.765625 2.453125 -1.390625 2.640625 -2.171875 C 2.78125 -2.703125 3.09375 -2.875 3.328125 -2.875 C 3.34375 -2.875 3.546875 -2.875 3.703125 -2.78125 C 3.484375 -2.71875 3.390625 -2.515625 3.390625 -2.390625 C 3.390625 -2.25 3.515625 -2.140625 3.671875 -2.140625 C 3.828125 -2.140625 4.0625 -2.265625 4.0625 -2.5625 C 4.0625 -2.953125 3.609375 -3.078125 3.34375 -3.078125 C 2.984375 -3.078125 2.703125 -2.84375 2.5625 -2.578125 C 2.4375 -2.859375 2.109375 -3.078125 1.71875 -3.078125 C 0.9375 -3.078125 0.5 -2.21875 0.5 -2 C 0.5 -1.921875 0.59375 -1.921875 0.609375 -1.921875 C 0.703125 -1.921875 0.703125 -1.9375 0.75 -2.03125 C 0.921875 -2.578125 1.359375 -2.875 1.703125 -2.875 C 1.9375 -2.875 2.125 -2.75 2.125 -2.421875 C 2.125 -2.28125 2.03125 -1.9375 1.96875 -1.6875 Z M 1.734375 -0.734375 "
             style="stroke:none;stroke-width:0" />
        </g>
        <g
           id="g2699"
           style="fill:rgb(0%,0%,0%);fill-opacity:1;">
          <path
             id="path2697"
             transform="translate(162.605,145.685)"
             d="M 6.84375 -3.265625 C 7 -3.265625 7.1875 -3.265625 7.1875 -3.453125 C 7.1875 -3.65625 7 -3.65625 6.859375 -3.65625 L 0.890625 -3.65625 C 0.75 -3.65625 0.5625 -3.65625 0.5625 -3.453125 C 0.5625 -3.265625 0.75 -3.265625 0.890625 -3.265625 Z M 6.859375 -1.328125 C 7 -1.328125 7.1875 -1.328125 7.1875 -1.53125 C 7.1875 -1.71875 7 -1.71875 6.84375 -1.71875 L 0.890625 -1.71875 C 0.75 -1.71875 0.5625 -1.71875 0.5625 -1.53125 C 0.5625 -1.328125 0.75 -1.328125 0.890625 -1.328125 Z M 6.859375 -1.328125 "
             style="stroke:none;stroke-width:0" />
        </g>
        <g
           id="g2703"
           style="fill:rgb(0%,0%,0%);fill-opacity:1;">
          <path
             id="path2701"
             transform="translate(173.121,125.66)"
             d="M 3.734375 17.640625 C 3.953125 17.640625 4 17.640625 4 17.5 C 4.03125 10.515625 4.828125 4.71875 8.328125 -0.15625 C 8.390625 -0.25 8.390625 -0.265625 8.390625 -0.296875 C 8.390625 -0.390625 8.328125 -0.390625 8.171875 -0.390625 C 8 -0.390625 7.984375 -0.390625 7.96875 -0.375 C 7.921875 -0.34375 6.65625 1.109375 5.65625 3.125 C 4.34375 5.75 3.515625 8.765625 3.140625 12.40625 C 3.109375 12.703125 2.90625 14.78125 2.90625 17.140625 L 2.90625 17.53125 C 2.90625 17.640625 2.96875 17.640625 3.1875 17.640625 Z M 3.734375 17.640625 "
             style="stroke:none;stroke-width:0" />
        </g>
        <g
           id="g2707"
           style="fill:rgb(0%,0%,0%);fill-opacity:1;">
          <path
             id="path2705"
             transform="translate(173.121,143.593)"
             d="M 3.1875 -0.5 C 2.96875 -0.5 2.90625 -0.5 2.90625 -0.390625 L 2.90625 0 C 2.90625 6.09375 3.984375 9.65625 4.296875 10.671875 C 4.96875 12.875 6.078125 15.21875 7.75 17.265625 C 7.890625 17.453125 7.9375 17.5 7.96875 17.515625 C 8 17.53125 8 17.53125 8.171875 17.53125 C 8.328125 17.53125 8.390625 17.53125 8.390625 17.4375 C 8.390625 17.421875 8.390625 17.390625 8.328125 17.3125 C 5.015625 12.703125 4.015625 7.15625 4 -0.359375 C 4 -0.5 3.953125 -0.5 3.734375 -0.5 Z M 3.1875 -0.5 "
             style="stroke:none;stroke-width:0" />
        </g>
        <g
           id="g2711"
           style="fill:rgb(0%,0%,0%);fill-opacity:1;">
          <path
             id="path2709"
             transform="translate(185.218,133.171)"
             d="M 2.9375 -6.375 C 2.9375 -6.625 2.9375 -6.640625 2.703125 -6.640625 C 2.078125 -6 1.203125 -6 0.890625 -6 L 0.890625 -5.6875 C 1.09375 -5.6875 1.671875 -5.6875 2.1875 -5.953125 L 2.1875 -0.78125 C 2.1875 -0.421875 2.15625 -0.3125 1.265625 -0.3125 L 0.953125 -0.3125 L 0.953125 0 C 1.296875 -0.03125 2.15625 -0.03125 2.5625 -0.03125 C 2.953125 -0.03125 3.828125 -0.03125 4.171875 0 L 4.171875 -0.3125 L 3.859375 -0.3125 C 2.953125 -0.3125 2.9375 -0.421875 2.9375 -0.78125 Z M 2.9375 -6.375 "
             style="stroke:none;stroke-width:0" />
        </g>
        <g
           id="g2715"
           style="fill:rgb(0%,0%,0%);fill-opacity:1;">
          <path
             id="path2713"
             transform="translate(185.218,145.126)"
             d="M 4.578125 -3.1875 C 4.578125 -3.984375 4.53125 -4.78125 4.1875 -5.515625 C 3.734375 -6.484375 2.90625 -6.640625 2.5 -6.640625 C 1.890625 -6.640625 1.171875 -6.375 0.75 -5.453125 C 0.4375 -4.765625 0.390625 -3.984375 0.390625 -3.1875 C 0.390625 -2.4375 0.421875 -1.546875 0.84375 -0.78125 C 1.265625 0.015625 2 0.21875 2.484375 0.21875 C 3.015625 0.21875 3.78125 0.015625 4.21875 -0.9375 C 4.53125 -1.625 4.578125 -2.40625 4.578125 -3.1875 Z M 2.484375 0 C 2.09375 0 1.5 -0.25 1.328125 -1.203125 C 1.21875 -1.796875 1.21875 -2.71875 1.21875 -3.3125 C 1.21875 -3.953125 1.21875 -4.609375 1.296875 -5.140625 C 1.484375 -6.328125 2.234375 -6.421875 2.484375 -6.421875 C 2.8125 -6.421875 3.46875 -6.234375 3.65625 -5.25 C 3.765625 -4.6875 3.765625 -3.9375 3.765625 -3.3125 C 3.765625 -2.5625 3.765625 -1.890625 3.65625 -1.25 C 3.5 -0.296875 2.9375 0 2.484375 0 Z M 2.484375 0 "
             style="stroke:none;stroke-width:0" />
        </g>
        <g
           id="g2719"
           style="fill:rgb(0%,0%,0%);fill-opacity:1;">
          <path
             id="path2717"
             transform="translate(183.034,153.555)"
             d="M 3.65625 -2.359375 C 3.5625 -2.765625 3.25 -3.171875 2.59375 -3.171875 C 1.609375 -3.171875 0.8125 -2.453125 0.5625 -1.8125 C 0.515625 -1.703125 0.421875 -1.421875 0.421875 -1.140625 C 0.421875 -0.65625 0.796875 0.140625 1.875 0.140625 C 3.6875 0.140625 4.421875 -2.109375 4.421875 -3.09375 C 4.421875 -4.296875 3.640625 -4.96875 2.703125 -4.96875 C 1.5625 -4.96875 1.25 -4.0625 1.25 -3.859375 C 1.25 -3.796875 1.296875 -3.609375 1.53125 -3.609375 C 1.78125 -3.609375 1.921875 -3.8125 1.921875 -3.984375 C 1.921875 -4.171875 1.78125 -4.234375 1.65625 -4.25 C 2 -4.78125 2.578125 -4.78125 2.6875 -4.78125 C 3.21875 -4.78125 3.828125 -4.453125 3.828125 -3.453125 C 3.828125 -3.15625 3.796875 -2.90625 3.671875 -2.359375 Z M 1.890625 -0.078125 C 1.109375 -0.078125 1.015625 -0.671875 1.015625 -0.890625 C 1.015625 -1.15625 1.203125 -1.84375 1.28125 -2.015625 C 1.40625 -2.34375 1.828125 -2.984375 2.625 -2.984375 C 3.296875 -2.984375 3.515625 -2.453125 3.515625 -2.03125 C 3.515625 -1.5625 3.0625 -0.078125 1.890625 -0.078125 Z M 1.890625 -0.078125 "
             style="stroke:none;stroke-width:0" />
        </g>
        <g
           id="g2723"
           style="fill:rgb(0%,0%,0%);fill-opacity:1;">
          <path
             id="path2721"
             transform="translate(187.714117,153.555)"
             d="M 2.84375 -2.75 L 3.515625 -2.75 C 3.65625 -2.75 3.75 -2.75 3.75 -2.90625 C 3.75 -3 3.65625 -3 3.53125 -3 L 2.890625 -3 C 3.046875 -3.890625 3.09375 -4.203125 3.15625 -4.40625 C 3.1875 -4.5625 3.34375 -4.703125 3.515625 -4.703125 C 3.515625 -4.703125 3.703125 -4.703125 3.84375 -4.625 C 3.546875 -4.53125 3.53125 -4.28125 3.53125 -4.25 C 3.53125 -4.09375 3.65625 -3.984375 3.8125 -3.984375 C 4 -3.984375 4.203125 -4.140625 4.203125 -4.40625 C 4.203125 -4.734375 3.875 -4.90625 3.515625 -4.90625 C 3.203125 -4.90625 2.859375 -4.734375 2.671875 -4.390625 C 2.53125 -4.125 2.484375 -3.8125 2.328125 -3 L 1.78125 -3 C 1.640625 -3 1.546875 -3 1.546875 -2.84375 C 1.546875 -2.75 1.640625 -2.75 1.765625 -2.75 L 2.28125 -2.75 C 2.28125 -2.703125 1.84375 -0.203125 1.671875 0.546875 C 1.640625 0.703125 1.515625 1.21875 1.1875 1.21875 C 1.171875 1.21875 1.015625 1.21875 0.875 1.140625 C 1.15625 1.046875 1.1875 0.796875 1.1875 0.765625 C 1.1875 0.609375 1.0625 0.5 0.90625 0.5 C 0.71875 0.5 0.515625 0.65625 0.515625 0.921875 C 0.515625 1.234375 0.84375 1.421875 1.1875 1.421875 C 1.625 1.421875 1.9375 0.96875 2.015625 0.8125 C 2.265625 0.34375 2.4375 -0.515625 2.453125 -0.59375 Z M 2.84375 -2.75 "
             style="stroke:none;stroke-width:0" />
        </g>
        <path
           id="path2725"
           transform="matrix(1,0,0,-1,183.034,155.509)"
           d="M 0.00115625 0.0011875 L 9.348813 0.0011875 "
           style="fill:none;stroke-width:0.398;stroke-linecap:butt;stroke-linejoin:miter;stroke:rgb(0%,0%,0%);stroke-opacity:1;stroke-miterlimit:10;" />
        <g
           id="g2729"
           style="fill:rgb(0%,0%,0%);fill-opacity:1;">
          <path
             id="path2727"
             transform="translate(183.108,161.435)"
             d="M 3.65625 -2.359375 C 3.5625 -2.765625 3.25 -3.171875 2.59375 -3.171875 C 1.609375 -3.171875 0.8125 -2.453125 0.5625 -1.8125 C 0.515625 -1.703125 0.421875 -1.421875 0.421875 -1.140625 C 0.421875 -0.65625 0.796875 0.140625 1.875 0.140625 C 3.6875 0.140625 4.421875 -2.109375 4.421875 -3.09375 C 4.421875 -4.296875 3.640625 -4.96875 2.703125 -4.96875 C 1.5625 -4.96875 1.25 -4.0625 1.25 -3.859375 C 1.25 -3.796875 1.296875 -3.609375 1.53125 -3.609375 C 1.78125 -3.609375 1.921875 -3.8125 1.921875 -3.984375 C 1.921875 -4.171875 1.78125 -4.234375 1.65625 -4.25 C 2 -4.78125 2.578125 -4.78125 2.6875 -4.78125 C 3.21875 -4.78125 3.828125 -4.453125 3.828125 -3.453125 C 3.828125 -3.15625 3.796875 -2.90625 3.671875 -2.359375 Z M 1.890625 -0.078125 C 1.109375 -0.078125 1.015625 -0.671875 1.015625 -0.890625 C 1.015625 -1.15625 1.203125 -1.84375 1.28125 -2.015625 C 1.40625 -2.34375 1.828125 -2.984375 2.625 -2.984375 C 3.296875 -2.984375 3.515625 -2.453125 3.515625 -2.03125 C 3.515625 -1.5625 3.0625 -0.078125 1.890625 -0.078125 Z M 1.890625 -0.078125 "
             style="stroke:none;stroke-width:0" />
        </g>
        <g
           id="g2733"
           style="fill:rgb(0%,0%,0%);fill-opacity:1;">
          <path
             id="path2731"
             transform="translate(187.788117,161.435)"
             d="M 1.734375 -0.734375 C 1.671875 -0.5 1.4375 -0.125 1.078125 -0.125 C 1.0625 -0.125 0.84375 -0.125 0.703125 -0.21875 C 0.984375 -0.3125 1.015625 -0.5625 1.015625 -0.609375 C 1.015625 -0.765625 0.890625 -0.859375 0.734375 -0.859375 C 0.53125 -0.859375 0.328125 -0.703125 0.328125 -0.4375 C 0.328125 -0.09375 0.71875 0.0625 1.0625 0.0625 C 1.390625 0.0625 1.671875 -0.125 1.84375 -0.421875 C 2.015625 -0.0625 2.390625 0.0625 2.671875 0.0625 C 3.484375 0.0625 3.90625 -0.796875 3.90625 -1 C 3.90625 -1.09375 3.8125 -1.09375 3.796875 -1.09375 C 3.6875 -1.09375 3.6875 -1.046875 3.65625 -0.96875 C 3.515625 -0.484375 3.09375 -0.125 2.703125 -0.125 C 2.421875 -0.125 2.28125 -0.3125 2.28125 -0.578125 C 2.28125 -0.765625 2.453125 -1.390625 2.640625 -2.171875 C 2.78125 -2.703125 3.09375 -2.875 3.328125 -2.875 C 3.34375 -2.875 3.546875 -2.875 3.703125 -2.78125 C 3.484375 -2.71875 3.390625 -2.515625 3.390625 -2.390625 C 3.390625 -2.25 3.515625 -2.140625 3.671875 -2.140625 C 3.828125 -2.140625 4.0625 -2.265625 4.0625 -2.5625 C 4.0625 -2.953125 3.609375 -3.078125 3.34375 -3.078125 C 2.984375 -3.078125 2.703125 -2.84375 2.5625 -2.578125 C 2.4375 -2.859375 2.109375 -3.078125 1.71875 -3.078125 C 0.9375 -3.078125 0.5 -2.21875 0.5 -2 C 0.5 -1.921875 0.59375 -1.921875 0.609375 -1.921875 C 0.703125 -1.921875 0.703125 -1.9375 0.75 -2.03125 C 0.921875 -2.578125 1.359375 -2.875 1.703125 -2.875 C 1.9375 -2.875 2.125 -2.75 2.125 -2.421875 C 2.125 -2.28125 2.03125 -1.9375 1.96875 -1.6875 Z M 1.734375 -0.734375 "
             style="stroke:none;stroke-width:0" />
        </g>
        <g
           id="g2737"
           style="fill:rgb(0%,0%,0%);fill-opacity:1;">
          <path
             id="path2735"
             transform="translate(193.579,125.66)"
             d="M 5.8125 17.140625 C 5.8125 11.0625 4.71875 7.484375 4.421875 6.484375 C 3.734375 4.265625 2.625 1.9375 0.96875 -0.125 C 0.8125 -0.296875 0.78125 -0.34375 0.734375 -0.375 C 0.71875 -0.375 0.703125 -0.390625 0.546875 -0.390625 C 0.40625 -0.390625 0.3125 -0.390625 0.3125 -0.296875 C 0.3125 -0.265625 0.3125 -0.25 0.453125 -0.0625 C 3.921875 4.78125 4.6875 10.75 4.703125 17.5 C 4.703125 17.640625 4.765625 17.640625 4.984375 17.640625 L 5.53125 17.640625 C 5.734375 17.640625 5.796875 17.640625 5.8125 17.53125 Z M 5.8125 17.140625 "
             style="stroke:none;stroke-width:0" />
        </g>
        <g
           id="g2741"
           style="fill:rgb(0%,0%,0%);fill-opacity:1;">
          <path
             id="path2739"
             transform="translate(193.579,143.593)"
             d="M 5.8125 -0.390625 C 5.796875 -0.5 5.734375 -0.5 5.53125 -0.5 L 4.984375 -0.5 C 4.765625 -0.5 4.703125 -0.5 4.703125 -0.359375 C 4.703125 0.671875 4.6875 3.046875 4.4375 5.515625 C 3.890625 10.671875 2.578125 14.25 0.390625 17.3125 C 0.3125 17.390625 0.3125 17.421875 0.3125 17.4375 C 0.3125 17.53125 0.40625 17.53125 0.546875 17.53125 C 0.703125 17.53125 0.734375 17.53125 0.75 17.515625 C 0.78125 17.484375 2.046875 16.03125 3.0625 14.03125 C 4.375 11.390625 5.203125 8.375 5.578125 4.75 C 5.609375 4.4375 5.8125 2.359375 5.8125 0 Z M 5.8125 -0.390625 "
             style="stroke:none;stroke-width:0" />
        </g>
      </g>
    </g>
    <g
       id="g3109"
       ns1:jacobian_sqrt="0.705556"
       inkscapeversion="0.92.4"
       ns1:alignment="middle center"
       ns1:scale="2.0"
       ns1:preamble="/home/joe/.config/inkscape/extensions/textext/default_packages.tex"
       ns1:text="$\nS_y =\n\\begin{pmatrix}\n0 \\\\\n1 \\\\\n\\frac{\\partial f}{\\partial y}\n\\end{pmatrix}\n$"
       ns1:pdfconverter="pdf2svg"
       ns1:texconverter="pdflatex"
       ns1:version="0.11.0"
       transform="matrix(0.705556,0.000000,0.000000,0.705556,-116.942081,14.729334)">
      <g
         id="g3107">
        <g
           id="g3055"
           style="fill:rgb(0%,0%,0%);fill-opacity:1;">
          <path
             id="path3053"
             transform="translate(148.712,146.287)"
             d="M 6.4375 -6.921875 C 6.4375 -6.953125 6.40625 -7.03125 6.3125 -7.03125 C 6.265625 -7.03125 6.265625 -7.015625 6.140625 -6.875 L 5.65625 -6.3125 C 5.40625 -6.78125 4.890625 -7.03125 4.234375 -7.03125 C 2.96875 -7.03125 1.78125 -5.875 1.78125 -4.671875 C 1.78125 -3.875 2.296875 -3.40625 2.8125 -3.265625 L 3.875 -2.984375 C 4.25 -2.890625 4.796875 -2.734375 4.796875 -1.921875 C 4.796875 -1.03125 3.984375 -0.09375 3 -0.09375 C 2.359375 -0.09375 1.25 -0.3125 1.25 -1.546875 C 1.25 -1.78125 1.3125 -2.03125 1.3125 -2.078125 C 1.328125 -2.125 1.328125 -2.140625 1.328125 -2.15625 C 1.328125 -2.25 1.265625 -2.265625 1.21875 -2.265625 C 1.171875 -2.265625 1.140625 -2.25 1.109375 -2.21875 C 1.078125 -2.1875 0.515625 0.09375 0.515625 0.125 C 0.515625 0.171875 0.5625 0.21875 0.625 0.21875 C 0.671875 0.21875 0.6875 0.203125 0.8125 0.0625 L 1.296875 -0.5 C 1.71875 0.078125 2.40625 0.21875 2.984375 0.21875 C 4.34375 0.21875 5.515625 -1.109375 5.515625 -2.34375 C 5.515625 -3.03125 5.171875 -3.375 5.03125 -3.515625 C 4.796875 -3.734375 4.640625 -3.78125 3.765625 -4 C 3.53125 -4.0625 3.1875 -4.171875 3.09375 -4.1875 C 2.828125 -4.28125 2.484375 -4.5625 2.484375 -5.09375 C 2.484375 -5.90625 3.28125 -6.75 4.234375 -6.75 C 5.046875 -6.75 5.65625 -6.3125 5.65625 -5.203125 C 5.65625 -4.890625 5.625 -4.703125 5.625 -4.640625 C 5.625 -4.640625 5.625 -4.546875 5.734375 -4.546875 C 5.84375 -4.546875 5.859375 -4.578125 5.890625 -4.75 Z M 6.4375 -6.921875 "
             style="stroke:none;stroke-width:0" />
        </g>
        <g
           id="g3059"
           style="fill:rgb(0%,0%,0%);fill-opacity:1;">
          <path
             id="path3057"
             transform="translate(154.821,147.782)"
             d="M 3.875 -2.625 C 3.90625 -2.71875 3.90625 -2.734375 3.90625 -2.78125 C 3.90625 -2.921875 3.796875 -3 3.671875 -3 C 3.59375 -3 3.46875 -2.96875 3.390625 -2.84375 C 3.359375 -2.796875 3.3125 -2.578125 3.28125 -2.4375 L 3.125 -1.859375 C 3.09375 -1.6875 2.875 -0.8125 2.84375 -0.734375 C 2.84375 -0.734375 2.53125 -0.125 2 -0.125 C 1.515625 -0.125 1.515625 -0.578125 1.515625 -0.703125 C 1.515625 -1.078125 1.671875 -1.515625 1.890625 -2.0625 C 1.96875 -2.28125 2 -2.359375 2 -2.484375 C 2 -2.8125 1.71875 -3.078125 1.34375 -3.078125 C 0.640625 -3.078125 0.328125 -2.125 0.328125 -2 C 0.328125 -1.921875 0.421875 -1.921875 0.453125 -1.921875 C 0.546875 -1.921875 0.546875 -1.953125 0.578125 -2.03125 C 0.75 -2.609375 1.046875 -2.875 1.328125 -2.875 C 1.4375 -2.875 1.5 -2.796875 1.5 -2.640625 C 1.5 -2.46875 1.4375 -2.328125 1.40625 -2.234375 C 1.0625 -1.375 1 -1.125 1 -0.8125 C 1 -0.703125 1 -0.375 1.265625 -0.140625 C 1.484375 0.03125 1.78125 0.0625 1.96875 0.0625 C 2.25 0.0625 2.5 -0.03125 2.71875 -0.25 C 2.640625 0.140625 2.5625 0.4375 2.265625 0.78125 C 2.078125 1 1.796875 1.21875 1.421875 1.21875 C 1.375 1.21875 1.046875 1.21875 0.90625 1 C 1.28125 0.953125 1.28125 0.625 1.28125 0.609375 C 1.28125 0.390625 1.078125 0.34375 1.015625 0.34375 C 0.84375 0.34375 0.609375 0.484375 0.609375 0.8125 C 0.609375 1.15625 0.9375 1.421875 1.4375 1.421875 C 2.140625 1.421875 3 0.875 3.21875 0 Z M 3.875 -2.625 "
             style="stroke:none;stroke-width:0" />
        </g>
        <g
           id="g3063"
           style="fill:rgb(0%,0%,0%);fill-opacity:1;">
          <path
             id="path3061"
             transform="translate(162.377,146.287)"
             d="M 6.84375 -3.265625 C 7 -3.265625 7.1875 -3.265625 7.1875 -3.453125 C 7.1875 -3.65625 7 -3.65625 6.859375 -3.65625 L 0.890625 -3.65625 C 0.75 -3.65625 0.5625 -3.65625 0.5625 -3.453125 C 0.5625 -3.265625 0.75 -3.265625 0.890625 -3.265625 Z M 6.859375 -1.328125 C 7 -1.328125 7.1875 -1.328125 7.1875 -1.53125 C 7.1875 -1.71875 7 -1.71875 6.84375 -1.71875 L 0.890625 -1.71875 C 0.75 -1.71875 0.5625 -1.71875 0.5625 -1.53125 C 0.5625 -1.328125 0.75 -1.328125 0.890625 -1.328125 Z M 6.859375 -1.328125 "
             style="stroke:none;stroke-width:0" />
        </g>
        <g
           id="g3067"
           style="fill:rgb(0%,0%,0%);fill-opacity:1;">
          <path
             id="path3065"
             transform="translate(172.894,126.262)"
             d="M 3.734375 17.640625 C 3.953125 17.640625 4 17.640625 4 17.5 C 4.03125 10.515625 4.828125 4.71875 8.328125 -0.15625 C 8.390625 -0.25 8.390625 -0.265625 8.390625 -0.296875 C 8.390625 -0.390625 8.328125 -0.390625 8.171875 -0.390625 C 8 -0.390625 7.984375 -0.390625 7.96875 -0.375 C 7.921875 -0.34375 6.65625 1.109375 5.65625 3.125 C 4.34375 5.75 3.515625 8.765625 3.140625 12.40625 C 3.109375 12.703125 2.90625 14.78125 2.90625 17.140625 L 2.90625 17.53125 C 2.90625 17.640625 2.96875 17.640625 3.1875 17.640625 Z M 3.734375 17.640625 "
             style="stroke:none;stroke-width:0" />
        </g>
        <g
           id="g3071"
           style="fill:rgb(0%,0%,0%);fill-opacity:1;">
          <path
             id="path3069"
             transform="translate(172.894,144.195)"
             d="M 3.1875 -0.5 C 2.96875 -0.5 2.90625 -0.5 2.90625 -0.390625 L 2.90625 0 C 2.90625 6.09375 3.984375 9.65625 4.296875 10.671875 C 4.96875 12.875 6.078125 15.21875 7.75 17.265625 C 7.890625 17.453125 7.9375 17.5 7.96875 17.515625 C 8 17.53125 8 17.53125 8.171875 17.53125 C 8.328125 17.53125 8.390625 17.53125 8.390625 17.4375 C 8.390625 17.421875 8.390625 17.390625 8.328125 17.3125 C 5.015625 12.703125 4.015625 7.15625 4 -0.359375 C 4 -0.5 3.953125 -0.5 3.734375 -0.5 Z M 3.1875 -0.5 "
             style="stroke:none;stroke-width:0" />
        </g>
        <g
           id="g3075"
           style="fill:rgb(0%,0%,0%);fill-opacity:1;">
          <path
             id="path3073"
             transform="translate(184.991,133.171)"
             d="M 4.578125 -3.1875 C 4.578125 -3.984375 4.53125 -4.78125 4.1875 -5.515625 C 3.734375 -6.484375 2.90625 -6.640625 2.5 -6.640625 C 1.890625 -6.640625 1.171875 -6.375 0.75 -5.453125 C 0.4375 -4.765625 0.390625 -3.984375 0.390625 -3.1875 C 0.390625 -2.4375 0.421875 -1.546875 0.84375 -0.78125 C 1.265625 0.015625 2 0.21875 2.484375 0.21875 C 3.015625 0.21875 3.78125 0.015625 4.21875 -0.9375 C 4.53125 -1.625 4.578125 -2.40625 4.578125 -3.1875 Z M 2.484375 0 C 2.09375 0 1.5 -0.25 1.328125 -1.203125 C 1.21875 -1.796875 1.21875 -2.71875 1.21875 -3.3125 C 1.21875 -3.953125 1.21875 -4.609375 1.296875 -5.140625 C 1.484375 -6.328125 2.234375 -6.421875 2.484375 -6.421875 C 2.8125 -6.421875 3.46875 -6.234375 3.65625 -5.25 C 3.765625 -4.6875 3.765625 -3.9375 3.765625 -3.3125 C 3.765625 -2.5625 3.765625 -1.890625 3.65625 -1.25 C 3.5 -0.296875 2.9375 0 2.484375 0 Z M 2.484375 0 "
             style="stroke:none;stroke-width:0" />
        </g>
        <g
           id="g3079"
           style="fill:rgb(0%,0%,0%);fill-opacity:1;">
          <path
             id="path3077"
             transform="translate(184.991,145.126)"
             d="M 2.9375 -6.375 C 2.9375 -6.625 2.9375 -6.640625 2.703125 -6.640625 C 2.078125 -6 1.203125 -6 0.890625 -6 L 0.890625 -5.6875 C 1.09375 -5.6875 1.671875 -5.6875 2.1875 -5.953125 L 2.1875 -0.78125 C 2.1875 -0.421875 2.15625 -0.3125 1.265625 -0.3125 L 0.953125 -0.3125 L 0.953125 0 C 1.296875 -0.03125 2.15625 -0.03125 2.5625 -0.03125 C 2.953125 -0.03125 3.828125 -0.03125 4.171875 0 L 4.171875 -0.3125 L 3.859375 -0.3125 C 2.953125 -0.3125 2.9375 -0.421875 2.9375 -0.78125 Z M 2.9375 -6.375 "
             style="stroke:none;stroke-width:0" />
        </g>
        <g
           id="g3083"
           style="fill:rgb(0%,0%,0%);fill-opacity:1;">
          <path
             id="path3081"
             transform="translate(182.806,153.555)"
             d="M 3.65625 -2.359375 C 3.5625 -2.765625 3.25 -3.171875 2.59375 -3.171875 C 1.609375 -3.171875 0.8125 -2.453125 0.5625 -1.8125 C 0.515625 -1.703125 0.421875 -1.421875 0.421875 -1.140625 C 0.421875 -0.65625 0.796875 0.140625 1.875 0.140625 C 3.6875 0.140625 4.421875 -2.109375 4.421875 -3.09375 C 4.421875 -4.296875 3.640625 -4.96875 2.703125 -4.96875 C 1.5625 -4.96875 1.25 -4.0625 1.25 -3.859375 C 1.25 -3.796875 1.296875 -3.609375 1.53125 -3.609375 C 1.78125 -3.609375 1.921875 -3.8125 1.921875 -3.984375 C 1.921875 -4.171875 1.78125 -4.234375 1.65625 -4.25 C 2 -4.78125 2.578125 -4.78125 2.6875 -4.78125 C 3.21875 -4.78125 3.828125 -4.453125 3.828125 -3.453125 C 3.828125 -3.15625 3.796875 -2.90625 3.671875 -2.359375 Z M 1.890625 -0.078125 C 1.109375 -0.078125 1.015625 -0.671875 1.015625 -0.890625 C 1.015625 -1.15625 1.203125 -1.84375 1.28125 -2.015625 C 1.40625 -2.34375 1.828125 -2.984375 2.625 -2.984375 C 3.296875 -2.984375 3.515625 -2.453125 3.515625 -2.03125 C 3.515625 -1.5625 3.0625 -0.078125 1.890625 -0.078125 Z M 1.890625 -0.078125 "
             style="stroke:none;stroke-width:0" />
        </g>
        <g
           id="g3087"
           style="fill:rgb(0%,0%,0%);fill-opacity:1;">
          <path
             id="path3085"
             transform="translate(187.493091,153.555)"
             d="M 2.84375 -2.75 L 3.515625 -2.75 C 3.65625 -2.75 3.75 -2.75 3.75 -2.90625 C 3.75 -3 3.65625 -3 3.53125 -3 L 2.890625 -3 C 3.046875 -3.890625 3.09375 -4.203125 3.15625 -4.40625 C 3.1875 -4.5625 3.34375 -4.703125 3.515625 -4.703125 C 3.515625 -4.703125 3.703125 -4.703125 3.84375 -4.625 C 3.546875 -4.53125 3.53125 -4.28125 3.53125 -4.25 C 3.53125 -4.09375 3.65625 -3.984375 3.8125 -3.984375 C 4 -3.984375 4.203125 -4.140625 4.203125 -4.40625 C 4.203125 -4.734375 3.875 -4.90625 3.515625 -4.90625 C 3.203125 -4.90625 2.859375 -4.734375 2.671875 -4.390625 C 2.53125 -4.125 2.484375 -3.8125 2.328125 -3 L 1.78125 -3 C 1.640625 -3 1.546875 -3 1.546875 -2.84375 C 1.546875 -2.75 1.640625 -2.75 1.765625 -2.75 L 2.28125 -2.75 C 2.28125 -2.703125 1.84375 -0.203125 1.671875 0.546875 C 1.640625 0.703125 1.515625 1.21875 1.1875 1.21875 C 1.171875 1.21875 1.015625 1.21875 0.875 1.140625 C 1.15625 1.046875 1.1875 0.796875 1.1875 0.765625 C 1.1875 0.609375 1.0625 0.5 0.90625 0.5 C 0.71875 0.5 0.515625 0.65625 0.515625 0.921875 C 0.515625 1.234375 0.84375 1.421875 1.1875 1.421875 C 1.625 1.421875 1.9375 0.96875 2.015625 0.8125 C 2.265625 0.34375 2.4375 -0.515625 2.453125 -0.59375 Z M 2.84375 -2.75 "
             style="stroke:none;stroke-width:0" />
        </g>
        <path
           id="path3089"
           transform="matrix(1,0,0,-1,182.806,155.509)"
           d="M -0.0013125 0.0011875 L 9.35025 0.0011875 "
           style="fill:none;stroke-width:0.398;stroke-linecap:butt;stroke-linejoin:miter;stroke:rgb(0%,0%,0%);stroke-opacity:1;stroke-miterlimit:10;" />
        <g
           id="g3093"
           style="fill:rgb(0%,0%,0%);fill-opacity:1;">
          <path
             id="path3091"
             transform="translate(182.994,161.435)"
             d="M 3.65625 -2.359375 C 3.5625 -2.765625 3.25 -3.171875 2.59375 -3.171875 C 1.609375 -3.171875 0.8125 -2.453125 0.5625 -1.8125 C 0.515625 -1.703125 0.421875 -1.421875 0.421875 -1.140625 C 0.421875 -0.65625 0.796875 0.140625 1.875 0.140625 C 3.6875 0.140625 4.421875 -2.109375 4.421875 -3.09375 C 4.421875 -4.296875 3.640625 -4.96875 2.703125 -4.96875 C 1.5625 -4.96875 1.25 -4.0625 1.25 -3.859375 C 1.25 -3.796875 1.296875 -3.609375 1.53125 -3.609375 C 1.78125 -3.609375 1.921875 -3.8125 1.921875 -3.984375 C 1.921875 -4.171875 1.78125 -4.234375 1.65625 -4.25 C 2 -4.78125 2.578125 -4.78125 2.6875 -4.78125 C 3.21875 -4.78125 3.828125 -4.453125 3.828125 -3.453125 C 3.828125 -3.15625 3.796875 -2.90625 3.671875 -2.359375 Z M 1.890625 -0.078125 C 1.109375 -0.078125 1.015625 -0.671875 1.015625 -0.890625 C 1.015625 -1.15625 1.203125 -1.84375 1.28125 -2.015625 C 1.40625 -2.34375 1.828125 -2.984375 2.625 -2.984375 C 3.296875 -2.984375 3.515625 -2.453125 3.515625 -2.03125 C 3.515625 -1.5625 3.0625 -0.078125 1.890625 -0.078125 Z M 1.890625 -0.078125 "
             style="stroke:none;stroke-width:0" />
        </g>
        <g
           id="g3097"
           style="fill:rgb(0%,0%,0%);fill-opacity:1;">
          <path
             id="path3095"
             transform="translate(187.681091,161.435)"
             d="M 3.875 -2.625 C 3.90625 -2.71875 3.90625 -2.734375 3.90625 -2.78125 C 3.90625 -2.921875 3.796875 -3 3.671875 -3 C 3.59375 -3 3.46875 -2.96875 3.390625 -2.84375 C 3.359375 -2.796875 3.3125 -2.578125 3.28125 -2.4375 L 3.125 -1.859375 C 3.09375 -1.6875 2.875 -0.8125 2.84375 -0.734375 C 2.84375 -0.734375 2.53125 -0.125 2 -0.125 C 1.515625 -0.125 1.515625 -0.578125 1.515625 -0.703125 C 1.515625 -1.078125 1.671875 -1.515625 1.890625 -2.0625 C 1.96875 -2.28125 2 -2.359375 2 -2.484375 C 2 -2.8125 1.71875 -3.078125 1.34375 -3.078125 C 0.640625 -3.078125 0.328125 -2.125 0.328125 -2 C 0.328125 -1.921875 0.421875 -1.921875 0.453125 -1.921875 C 0.546875 -1.921875 0.546875 -1.953125 0.578125 -2.03125 C 0.75 -2.609375 1.046875 -2.875 1.328125 -2.875 C 1.4375 -2.875 1.5 -2.796875 1.5 -2.640625 C 1.5 -2.46875 1.4375 -2.328125 1.40625 -2.234375 C 1.0625 -1.375 1 -1.125 1 -0.8125 C 1 -0.703125 1 -0.375 1.265625 -0.140625 C 1.484375 0.03125 1.78125 0.0625 1.96875 0.0625 C 2.25 0.0625 2.5 -0.03125 2.71875 -0.25 C 2.640625 0.140625 2.5625 0.4375 2.265625 0.78125 C 2.078125 1 1.796875 1.21875 1.421875 1.21875 C 1.375 1.21875 1.046875 1.21875 0.90625 1 C 1.28125 0.953125 1.28125 0.625 1.28125 0.609375 C 1.28125 0.390625 1.078125 0.34375 1.015625 0.34375 C 0.84375 0.34375 0.609375 0.484375 0.609375 0.8125 C 0.609375 1.15625 0.9375 1.421875 1.4375 1.421875 C 2.140625 1.421875 3 0.875 3.21875 0 Z M 3.875 -2.625 "
             style="stroke:none;stroke-width:0" />
        </g>
        <g
           id="g3101"
           style="fill:rgb(0%,0%,0%);fill-opacity:1;">
          <path
             id="path3099"
             transform="translate(193.352,126.262)"
             d="M 5.8125 17.140625 C 5.8125 11.0625 4.71875 7.484375 4.421875 6.484375 C 3.734375 4.265625 2.625 1.9375 0.96875 -0.125 C 0.8125 -0.296875 0.78125 -0.34375 0.734375 -0.375 C 0.71875 -0.375 0.703125 -0.390625 0.546875 -0.390625 C 0.40625 -0.390625 0.3125 -0.390625 0.3125 -0.296875 C 0.3125 -0.265625 0.3125 -0.25 0.453125 -0.0625 C 3.921875 4.78125 4.6875 10.75 4.703125 17.5 C 4.703125 17.640625 4.765625 17.640625 4.984375 17.640625 L 5.53125 17.640625 C 5.734375 17.640625 5.796875 17.640625 5.8125 17.53125 Z M 5.8125 17.140625 "
             style="stroke:none;stroke-width:0" />
        </g>
        <g
           id="g3105"
           style="fill:rgb(0%,0%,0%);fill-opacity:1;">
          <path
             id="path3103"
             transform="translate(193.352,144.195)"
             d="M 5.8125 -0.390625 C 5.796875 -0.5 5.734375 -0.5 5.53125 -0.5 L 4.984375 -0.5 C 4.765625 -0.5 4.703125 -0.5 4.703125 -0.359375 C 4.703125 0.671875 4.6875 3.046875 4.4375 5.515625 C 3.890625 10.671875 2.578125 14.25 0.390625 17.3125 C 0.3125 17.390625 0.3125 17.421875 0.3125 17.4375 C 0.3125 17.53125 0.40625 17.53125 0.546875 17.53125 C 0.703125 17.53125 0.734375 17.53125 0.75 17.515625 C 0.78125 17.484375 2.046875 16.03125 3.0625 14.03125 C 4.375 11.390625 5.203125 8.375 5.578125 4.75 C 5.609375 4.4375 5.8125 2.359375 5.8125 0 Z M 5.8125 -0.390625 "
             style="stroke:none;stroke-width:0" />
        </g>
      </g>
    </g>
  </g>
</svg>
